<svg preserveAspectRatio="none" overflow="visible" style="display: block;" width="59" height="59" viewBox="0 0 59 59" fill="none" xmlns="http://www.w3.org/2000/svg">
<g id="download-02">
<path id="Vector" d="M39.3346 29.5C39.3346 29.5 32.0926 39.3333 29.5013 39.3333C26.9099 39.3333 19.668 29.5 19.668 29.5M29.5013 38.1042V7.375" stroke="white" stroke-width="2" stroke-linecap="round" stroke-linejoin="round"/>
<path id="Vector_2" d="M41.7916 19.667C47.2226 19.667 51.6249 24.0695 51.6249 29.5003V35.6462C51.6249 41.3854 51.6249 44.255 50.4639 46.4274C49.5472 48.1426 48.1422 49.5473 46.427 50.4643C44.2549 51.6253 41.3853 51.6253 35.6458 51.6253H23.3551C17.6149 51.6253 14.7448 51.6253 12.5723 50.4638C10.8576 49.5471 9.45315 48.1429 8.53646 46.4282C7.375 44.2555 7.375 41.3854 7.375 35.6452V29.4979C7.37635 24.0702 11.7751 19.6701 17.2028 19.667H17.2083" stroke="white" stroke-width="2" stroke-linecap="round" stroke-linejoin="round"/>
</g>
</svg>
