<svg preserveAspectRatio="none" overflow="visible" style="display: block;" width="654.539" height="792" viewBox="0 0 654.539 792" fill="none" xmlns="http://www.w3.org/2000/svg">
<g id="Group">
<path id="Vector" d="M326.768 0.593888C515.674 -9.73616 644.574 115.659 654.539 301.356L654.495 710.602C642.609 817.433 492.98 818.981 480.702 711.515L480.771 316.121C476.128 206.769 363.384 142.719 266.414 196.543C221.668 221.377 193.565 265.74 189.634 316.991L189.704 707.176C179.009 819.754 12.6498 820.502 1.09375 708.046V309.174C1.78068 268.036 24.3364 175.987 74.5605 171.509C94.8293 169.701 141.297 176.039 156.914 166.979C167.096 161.075 171.348 151.171 172.279 139.771C174.148 116.894 169.844 90.4166 172.531 67.9131C175 47.2008 195.643 36.6273 212.538 28.8537C246.676 13.1586 289.179 2.65468 326.768 0.593888Z" fill="white" fill-opacity="0.04"/>
<path id="Vector_2" d="M25.2397 1.44578C63.2818 3.48918 105.654 -2.04105 143.209 1.19361C155.444 2.24575 163.313 13.7062 156.174 24.6449C150.574 33.2185 131.67 43.5485 124.132 51.6787C119.845 57.7306 120.94 62.0435 122.749 68.5737C127.418 85.4426 139.809 108.45 142.54 124.372C144.392 135.128 139.922 142.545 128.662 142.658L66.3338 121.511C58.708 120.111 55.3081 120.841 50.2127 126.319C42.7695 134.319 31.3264 154.292 23.6572 159.718C13.7445 166.735 2.09276 158.857 1.09279 147.649C-2.35056 109.033 3.66661 65.226 1.22322 26.0709C3.03185 12.8714 12.1706 3.79352 25.2397 1.44578Z" fill="white" fill-opacity="0.04"/>
</g>
</svg>
