<svg preserveAspectRatio="none" overflow="visible" style="display: block;" width="88" height="106.482" viewBox="0 0 88 106.482" fill="none" xmlns="http://www.w3.org/2000/svg">
<g id="Group">
<path id="Vector" d="M43.9324 0.0798859C69.3302 -1.30895 86.6603 15.55 88 40.5164L87.9942 95.5381C86.3961 109.901 66.2789 110.109 64.6282 95.6608L64.6376 42.5015C64.0133 27.7994 48.8553 19.1881 35.818 26.4246C29.802 29.7634 26.0236 35.7279 25.4952 42.6184L25.5046 95.0775C24.0666 110.213 1.70022 110.314 0.146547 95.1944V41.5674C0.238902 36.0366 3.27144 23.6609 10.0239 23.0589C12.749 22.8157 18.9964 23.6679 21.096 22.4498C22.465 21.656 23.0367 20.3244 23.1618 18.7918C23.4131 15.716 22.8344 12.1562 23.1957 9.13072C23.5277 6.34603 26.303 4.92446 28.5745 3.87932C33.1642 1.76917 38.8786 0.356952 43.9324 0.0798859Z" fill="white"/>
<path id="Vector_2" d="M3.39339 0.194347C8.50802 0.469075 14.2048 -0.274445 19.254 0.160444C20.8989 0.3019 21.9568 1.84272 20.997 3.31339C20.2442 4.46608 17.7026 5.85492 16.6891 6.94799C16.1127 7.76165 16.26 8.3415 16.5032 9.21947C17.131 11.4874 18.7969 14.5808 19.164 16.7213C19.413 18.1674 18.8121 19.1646 17.2982 19.1798L8.91836 16.3367C7.89309 16.1485 7.43599 16.2467 6.75092 16.9832C5.75021 18.0587 4.21173 20.744 3.18062 21.4735C1.8479 22.4169 0.281364 21.3578 0.146922 19.8509C-0.316024 14.6591 0.492963 8.76938 0.164458 3.50512C0.407622 1.73049 1.6363 0.509992 3.39339 0.194347Z" fill="#0158FF"/>
</g>
</svg>
